<?xml version="1.0" encoding="UTF-8"?>
<svg width="23px" height="23px" viewBox="0 0 23 23" version="1.1" xmlns="http://www.w3.org/2000/svg" xmlns:xlink="http://www.w3.org/1999/xlink">
    <title>add_circle_icon</title>
    <g id="Page-1" stroke="none" stroke-width="1" fill="none" fill-rule="evenodd">
        <g id="add_circle_icon" transform="translate(0.166708, 0.166708)" fill-rule="nonzero">
            <path d="M10.3156824,16.4999855 L11.7704362,16.4999855 L11.7704362,11.7823047 L16.4999855,11.7823047 L16.4999855,10.3275509 L11.7704362,10.3275509 L11.7704362,5.50001447 L10.3156824,5.50001447 L10.3156824,10.3275509 L5.50001447,10.3275509 L5.50001447,11.7823047 L10.3156824,11.7823047 L10.3156824,16.4999855 Z M11.0070632,22 C9.48413812,22 8.05607383,21.7112975 6.72287032,21.1338925 C5.38966681,20.5564874 4.2247155,19.7696573 3.22801639,18.773402 C2.23131728,17.7771468 1.44413977,16.6122341 0.866483859,15.2786639 C0.288827953,13.9450937 0,12.5163057 0,10.9923 C0,9.47323458 0.288702514,8.04537293 0.866107542,6.70871502 C1.44351257,5.37207642 2.23034271,4.20863037 3.22659796,3.21837689 C4.22285322,2.22810411 5.38776593,1.44413977 6.72133611,0.866483859 C8.05490628,0.288827953 9.48369426,0 11.0077,0 C12.5267654,0 13.9546271,0.288702514 15.291285,0.866107542 C16.6279236,1.44351257 17.7913696,2.2271199 18.7816231,3.21692952 C19.7718959,4.20675844 20.5558602,5.37072554 21.1335161,6.70883081 C21.711172,8.04691679 22,9.47495213 22,10.9929368 C22,12.5158619 21.7112975,13.9439262 21.1338925,15.2771297 C20.5564874,16.6103332 19.7728801,17.7740977 18.7830705,18.7684231 C17.7932416,19.7627485 16.6292745,20.549926 15.2911692,21.1299556 C13.9530832,21.7099852 12.5250479,22 11.0070632,22 Z" id="Shape" fill="#FFFFFF"></path>
            <polygon id="Path-2" fill="#000000" points="5.50001447 10.3275509 10.3373057 10.3275509 10.3373057 5.5324338 11.766674 5.5324338 11.766674 10.3275509 16.5218364 10.3275509 16.5218364 11.8148934 11.766674 11.8148934 11.766674 16.520485 10.3373057 16.520485 10.3373057 11.8148934 5.50001447 11.8148934"></polygon>
        </g>
    </g>
</svg>